<svg xmlns="http://www.w3.org/2000/svg"
     viewBox="0 0 1024 1024"
     width="300"
     height="300"
     fill="#28a745"
     stroke="#28a745"
     stroke-width="200">
    <g transform="translate(0.000000,1024.000000) scale(0.100000,-0.100000)">
        <path d="M2220 7661 c-107 -35 -189 -118 -221 -223 -27 -88 -21 -158 21 -244 l30 -61 0 -595 0 -595 -59 -36 c-83 -52 -173 -152 -214 -239 -46 -96 -61 -165 -61 -268 1 -361 339 -636 682 -555 186 44 344 198 358 348 10 102 -64 186 -164 187 -63 0 -108 -25 -153 -86 -46 -63 -68 -79 -129 -95 -119 -31 -239 72 -240 206 0 103 78 189 195 215 61 14 106 47 131 97 18 35 19 74 24 555 l5 518 155 -163 c85 -89 506 -529 935 -977 430 -448 800 -836 824 -862 l43 -47 -1083 -3 c-1200 -3 -1113 2 -1193 -68 -87 -77 -99 -148 -94 -553 4 -289 5 -304 28 -360 31 -77 99 -148 175 -184 58 -27 66 -28 251 -31 l191 -4 7 67 c27 263 227 533 486 654 136 63 194 75 360 75 129 0 155 -3 235 -28 282 -86 486 -283 582 -561 13 -38 27 -100 30 -137 l6 -68 858 0 859 0 0 40 c0 105 80 309 163 418 180 233 444 356 732 339 221 -13 411 -101 570 -262 123 -125 215 -313 231 -470 l7 -67 171 4 c146 4 179 7 227 26 71 28 143 97 177 170 l27 57 0 535 c0 599 1 587 -74 710 -20 33 -281 369 -581 747 -299 378 -577 730 -617 780 -90 114 -183 192 -288 243 -135 65 -179 70 -648 70 -462 0 -509 -5 -625 -72 -73 -42 -160 -131 -200 -205 -62 -118 -62 -108 -62 -978 l0 -790 -1392 1392 c-1001 999 -1406 1397 -1438 1414 -34 17 -66 23 -130 26 -47 1 -96 -1 -110 -6z m230 -30 c53 -27 412 -379 403 -395 -3 -6 -2 -7 2 -3 12 10 166 -143 158 -157 -3 -6 -2 -7 2 -3 11 10 156 -133 148 -146 -3 -6 -2 -7 4 -4 11 7 176 -156 168 -166 -3 -4 -2 -5 2 -2 4 3 444 -431 979 -966 698 -698 974 -968 980 -958 4 7 7 361 6 786 -2 844 -2 852 55 970 60 125 208 237 355 269 94 20 834 20 940 -1 89 -17 194 -59 190 -75 -1 -6 2 -9 8 -5 28 17 241 -169 225 -196 -5 -7 -4 -10 2 -6 6 4 64 -59 131 -146 326 -413 527 -666 560 -706 21 -24 66 -82 102 -127 36 -46 85 -110 110 -141 25 -32 98 -124 162 -205 141 -176 178 -232 209 -318 l24 -65 0 -530 0 -530 -29 -63 c-34 -73 -86 -124 -165 -160 -49 -23 -72 -26 -193 -30 -97 -3 -142 -1 -152 7 -10 8 -16 9 -21 1 -7 -11 -26 -14 -23 -3 5 19 -15 122 -39 196 -40 129 -103 227 -218 342 -85 84 -116 108 -200 152 -134 69 -222 93 -369 100 -185 9 -334 -27 -480 -115 -37 -23 -73 -39 -79 -35 -5 3 -7 1 -4 -5 4 -5 -15 -29 -42 -51 -61 -51 -149 -158 -190 -232 -41 -74 -87 -201 -96 -264 -3 -28 -8 -60 -11 -72 l-4 -23 -839 0 -839 0 -6 28 c-3 15 -8 47 -12 71 -15 100 -79 247 -149 341 -50 69 -161 173 -235 221 -154 102 -315 145 -510 136 -142 -6 -249 -34 -358 -93 -35 -19 -68 -31 -74 -28 -6 4 -8 3 -5 -3 4 -6 -11 -23 -33 -38 -50 -35 -166 -156 -209 -218 -69 -101 -136 -280 -143 -383 l-2 -34 -156 0 c-107 0 -175 5 -215 15 -64 17 -142 64 -137 84 1 7 -2 10 -7 6 -15 -8 -67 68 -86 124 -13 41 -15 100 -13 407 3 329 5 362 22 397 26 52 72 96 126 121 45 21 54 21 1120 24 637 2 1078 6 1084 12 6 6 5 15 -2 23 -7 8 -8 18 -4 22 4 5 2 5 -4 2 -14 -8 -137 121 -128 135 4 6 3 8 -3 5 -6 -4 -107 93 -224 215 -118 122 -283 294 -367 381 -84 87 -150 162 -147 168 4 5 1 8 -7 7 -7 -2 -12 3 -10 10 1 8 -2 11 -7 8 -12 -8 -252 244 -244 257 3 6 1 7 -4 4 -12 -8 -530 530 -525 545 1 5 -2 7 -7 4 -5 -3 -21 9 -36 26 -58 70 -238 247 -246 242 -5 -3 -9 -228 -9 -501 0 -359 -3 -507 -12 -536 -17 -58 -74 -113 -123 -122 -53 -10 -124 -47 -157 -82 -76 -80 -78 -212 -5 -299 21 -25 24 -34 14 -44 -10 -12 -9 -12 5 -1 14 10 21 9 44 -6 38 -24 136 -24 187 1 21 10 56 43 80 75 53 70 95 94 160 88 122 -11 178 -131 119 -260 -25 -56 -120 -159 -178 -193 -84 -49 -152 -67 -264 -67 -154 -1 -252 37 -373 144 -42 37 -113 131 -119 159 -2 8 -8 20 -14 27 -7 7 -19 44 -29 83 -22 91 -16 260 12 335 46 125 132 233 238 301 33 22 63 43 67 49 4 5 8 275 8 599 l0 590 -25 36 c-14 20 -32 66 -41 103 -16 62 -16 72 0 134 29 120 87 188 199 236 60 25 186 19 247 -12z"/>
        <path d="M5866 6390 c-16 -5 -39 -19 -52 -31 l-24 -22 0 -469 c0 -464 0 -469 22 -511 12 -23 21 -46 19 -52 -1 -5 1 -7 5 -2 4 4 16 -1 27 -10 18 -17 72 -18 801 -21 651 -2 785 0 800 11 18 13 7 30 -172 257 -105 134 -189 247 -186 252 3 5 1 7 -4 6 -13 -4 -273 332 -265 345 3 5 1 7 -4 4 -13 -8 -135 147 -125 158 4 3 3 5 -3 4 -5 -2 -30 9 -54 25 -92 59 -99 60 -441 63 -173 1 -328 -2 -344 -7z m655 -14 c77 -18 139 -56 193 -119 25 -28 205 -257 401 -507 346 -444 354 -455 327 -461 -15 -4 -364 -7 -777 -8 -849 -1 -798 -6 -842 78 l-23 44 0 462 c0 521 -3 500 76 515 72 14 583 11 645 -4z"/>
        <path d="M3420 4150 c-87 -12 -139 -29 -220 -71 -346 -179 -468 -611 -268 -946 43 -74 159 -189 231 -232 212 -125 475 -126 687 -4 84 49 206 172 248 251 112 209 117 422 15 632 -38 79 -59 108 -127 176 -123 122 -263 185 -437 197 -41 3 -99 2 -129 -3z m255 -27 c181 -45 349 -180 430 -348 55 -114 68 -182 62 -320 -7 -193 -56 -305 -191 -441 -142 -142 -301 -202 -505 -191 -121 7 -171 20 -274 74 -64 34 -214 159 -203 170 2 2 -7 15 -19 27 -34 34 -81 133 -105 218 -24 89 -27 234 -4 328 49 209 221 397 426 466 131 44 253 49 383 17z"/>
        <path d="M3410 3739 c-24 -11 -53 -27 -62 -36 -14 -13 -21 -13 -32 -3 -13 10 -15 9 -12 -7 3 -11 -8 -40 -24 -64 -114 -183 17 -420 232 -419 74 0 128 22 185 74 22 20 44 32 48 28 5 -4 5 -2 1 5 -4 7 3 32 15 55 63 121 -1 297 -133 362 -66 33 -152 35 -218 5z m200 -10 c101 -45 160 -138 160 -249 0 -78 -22 -129 -75 -182 -50 -50 -98 -71 -171 -76 -143 -10 -261 98 -272 248 -4 61 -1 76 22 124 64 130 214 190 336 135z"/>
        <path d="M6821 4149 c-137 -21 -288 -104 -387 -212 -135 -147 -199 -345 -174 -534 21 -161 81 -284 195 -398 151 -150 327 -213 547 -194 272 24 508 230 578 505 25 95 26 241 4 328 -86 336 -420 557 -763 505z m264 -25 c147 -35 310 -148 394 -273 135 -202 147 -454 34 -681 -55 -109 -172 -224 -284 -279 -110 -54 -183 -71 -299 -71 -116 0 -188 17 -300 71 -69 34 -101 57 -170 128 -86 87 -120 142 -162 260 -30 81 -36 266 -13 359 53 219 226 406 440 476 103 33 245 37 360 10z"/>
        <path d="M6814 3734 c-67 -35 -100 -69 -131 -132 -37 -75 -36 -147 0 -227 16 -33 28 -61 27 -63 0 -1 15 -16 34 -32 130 -115 322 -86 417 62 29 45 34 63 38 125 3 63 0 81 -23 127 -15 30 -46 71 -69 92 -23 21 -41 42 -39 47 1 5 -1 6 -6 3 -5 -3 -26 1 -48 9 -65 23 -144 19 -200 -11z m211 -8 c212 -98 220 -375 14 -482 -44 -22 -130 -29 -184 -14 -59 16 -127 77 -159 142 -106 212 118 453 329 354z"/>
    </g>
</svg>
